<?xml version="1.0" encoding="iso-8859-1"?>
<!-- Generator: Adobe Illustrator 16.0.0, SVG Export Plug-In . SVG Version: 6.00 Build 0)  -->
<!DOCTYPE svg PUBLIC "-//W3C//DTD SVG 1.1//EN" "http://www.w3.org/Graphics/SVG/1.1/DTD/svg11.dtd">
<svg version="1.1" id="Capa_1" xmlns="http://www.w3.org/2000/svg" xmlns:xlink="http://www.w3.org/1999/xlink" x="0px" y="0px"
	 width="26px" height="26px" viewBox="0 0 26 26" style="enable-background:new 0 0 26 26;" xml:space="preserve">
<g>
	<g>
		<path d="M17.354,4.707c-1.791,0-3.25,1.458-3.25,3.25s1.459,3.25,3.25,3.25c1.793,0,3.25-1.458,3.25-3.25
			S19.146,4.707,17.354,4.707z M17.354,10.707c-1.517,0-2.75-1.233-2.75-2.75s1.233-2.75,2.75-2.75c1.518,0,2.75,1.233,2.75,2.75
			S18.871,10.707,17.354,10.707z"/>
		<path d="M9.365,5.051c-1.603,0-2.906,1.304-2.906,2.906s1.304,2.906,2.906,2.906c1.602,0,2.906-1.304,2.906-2.906
			S10.967,5.051,9.365,5.051z M9.365,10.363c-1.327,0-2.406-1.079-2.406-2.406s1.08-2.406,2.406-2.406
			c1.326,0,2.406,1.079,2.406,2.406S10.691,10.363,9.365,10.363z"/>
		<path d="M13,0C5.832,0,0,5.832,0,13s5.832,13,13,13s13-5.832,13-13S20.168,0,13,0z M3.875,14.834c0,0.553-0.448,1-1,1
			s-1-0.447-1-1V13c0-0.553,0.448-1,1-1s1,0.447,1,1V14.834z M6.292,16.667c0,0.553-0.448,1-1,1c-0.552,0-1-0.447-1-1V13
			c0-0.553,0.448-1,1-1c0.552,0,1,0.447,1,1V16.667z M8.708,18.25c0,0.553-0.448,1-1,1c-0.552,0-1-0.447-1-1V13c0-0.553,0.448-1,1-1
			c0.552,0,1,0.447,1,1V18.25z M11.125,16.667c0,0.553-0.448,1-1,1s-1-0.447-1-1V13c0-0.553,0.448-1,1-1s1,0.447,1,1V16.667z
			 M16.875,16.667c0,0.553-0.448,1-1,1s-1-0.447-1-1V13c0-0.553,0.448-1,1-1s1,0.447,1,1V16.667z M19.292,18.25c0,0.553-0.448,1-1,1
			s-1-0.447-1-1V13c0-0.553,0.448-1,1-1s1,0.447,1,1V18.25z M21.708,16.667c0,0.553-0.448,1-1,1s-1-0.447-1-1V13
			c0-0.553,0.448-1,1-1s1,0.447,1,1V16.667z M24.125,14.834c0,0.553-0.448,1-1,1s-1-0.447-1-1V13c0-0.553,0.448-1,1-1s1,0.447,1,1
			V14.834z M23.125,11.5c-0.497,0-0.936,0.246-1.208,0.619c-0.272-0.373-0.711-0.619-1.208-0.619s-0.936,0.246-1.208,0.619
			c-0.272-0.373-0.711-0.619-1.208-0.619s-0.936,0.246-1.208,0.619c-0.272-0.373-0.711-0.619-1.208-0.619
			c-0.827,0-1.5,0.673-1.5,1.5h-2.749c0-0.827-0.673-1.5-1.5-1.5c-0.497,0-0.936,0.246-1.208,0.619
			C8.647,11.746,8.209,11.5,7.712,11.5s-0.936,0.246-1.208,0.619C6.231,11.746,5.793,11.5,5.296,11.5s-0.936,0.246-1.208,0.619
			C3.815,11.746,3.377,11.5,2.88,11.5c-0.827,0-1.5,0.673-1.5,1.5H1C1,8.283,3.742,4.206,7.708,2.246v1.396
			c0,0,3.049,0.79,4.292,1.919c-1.765-2.782-4.035-3.282-4.269-3.327C9.325,1.452,11.108,1,13,1c6.617,0,12,5.383,12,12h-0.375
			C24.625,12.173,23.953,11.5,23.125,11.5z"/>
		<circle cx="10.125" cy="7.958" r="0.938"/>
		<circle cx="15.938" cy="7.957" r="1"/>
		<path d="M17.167,3.104c0,0-1.792,0.292-3.167,2.458c0.917-0.833,3.167-1.416,3.167-1.416V3.104z"/>
	</g>
</g>
<g>
</g>
<g>
</g>
<g>
</g>
<g>
</g>
<g>
</g>
<g>
</g>
<g>
</g>
<g>
</g>
<g>
</g>
<g>
</g>
<g>
</g>
<g>
</g>
<g>
</g>
<g>
</g>
<g>
</g>
</svg>
